<?xml version="1.0" encoding="utf-8"?>
<svg version="1.1" width="286" height="73" xmlns="http://www.w3.org/2000/svg" xmlns:xlink="http://www.w3.org/1999/xlink" x="0px"
	 y="0px" viewBox="0 0 285.7 73" enable-background="new 0 0 285.7 73" xml:space="preserve">
<g>
	<g>
		<path fill="#007540" d="M84.64,38.31c0.5-0.02,0.89-0.08,1.15-0.18c0.26-0.1,0.47-0.32,0.62-0.66c0.15-0.34,0.22-0.87,0.22-1.6
			V22.46h-1.29c-1.1,0.02-1.95,0.39-2.55,1.12c-0.6,0.73-0.9,1.83-0.9,3.3h-1.85l0.14-6.33h16.97l0.17,6.33h-1.85
			c0-1.47-0.3-2.59-0.91-3.35c-0.61-0.76-1.45-1.12-2.53-1.11h-1.34v13.13c0,1.25-0.04,2.09-0.11,2.52
			c0.62-0.06,1.36-0.08,2.24-0.08v2.16h-8.18V38.31z"/>
		<path fill="#007540" d="M101.02,38.33c0.5,0,0.87-0.1,1.11-0.29c0.23-0.2,0.38-0.46,0.45-0.8s0.1-0.8,0.1-1.4V24.33
			c0-0.9,0.04-1.71,0.11-2.44l-1.96,0.08v-2.13c1.18,0,2.13-0.08,2.86-0.25c0.73-0.17,1.21-0.36,1.46-0.59h1.51v8.26
			c0.54-0.43,1.21-0.8,2.02-1.11c0.8-0.31,1.49-0.46,2.07-0.46c1.68,0,2.88,0.49,3.61,1.46c0.73,0.97,1.1,2.55,1.12,4.73v3.75
			c0,0.9-0.04,1.72-0.11,2.46c0.6-0.06,1.2-0.08,1.82-0.08v2.13h-7.36v-1.82c0.71,0,1.17-0.2,1.37-0.59
			c0.21-0.39,0.31-1.03,0.31-1.9l-0.03-3.98c0-1.23-0.18-2.14-0.55-2.72c-0.36-0.58-0.94-0.87-1.72-0.87c-0.45,0-0.91,0.1-1.37,0.29
			c-0.47,0.2-0.86,0.44-1.18,0.74v6.33c0,0.9-0.04,1.72-0.11,2.46c0.62-0.06,1.22-0.08,1.82-0.08v2.13h-7.34V38.33z"/>
		<path fill="#007540" d="M122.72,39.69c-1.05-0.61-1.86-1.47-2.44-2.59c-0.58-1.12-0.87-2.43-0.87-3.92c0-1.31,0.29-2.53,0.88-3.68
			s1.41-2.07,2.48-2.76c1.06-0.69,2.28-1.04,3.64-1.04c1.81,0,3.32,0.53,4.52,1.6s1.8,2.84,1.78,5.32l-9.18,0.17
			c0,1.64,0.31,2.94,0.94,3.89c0.63,0.95,1.63,1.43,3.01,1.43c0.65,0,1.35-0.17,2.1-0.5c0.75-0.34,1.42-0.87,2.02-1.6l1.26,1.18
			c-1.59,2.28-3.76,3.42-6.52,3.42C124.97,40.6,123.77,40.3,122.72,39.69z M128.85,30.83c-0.06-2.11-0.82-3.16-2.3-3.16
			c-0.8,0-1.44,0.28-1.92,0.85s-0.79,1.34-0.94,2.31H128.85z"/>
		<path fill="#007540" d="M149.43,28.98c-0.47-0.6-0.98-1.3-1.54-2.1h-0.03l0.06,8.68c0,1.05-0.04,1.89-0.11,2.52
			c0.6-0.06,1.3-0.08,2.1-0.08v2.16h-6.38v-1.85c0.5-0.02,0.89-0.08,1.15-0.18c0.26-0.1,0.47-0.32,0.62-0.66s0.22-0.87,0.22-1.6
			l-0.06-10.72c0-1.25,0.04-2.09,0.11-2.52l-2.13,0.08v-2.16h4.4l8.57,10.81c0.78,1.03,1.44,1.91,1.96,2.66h0.03v-8.88
			c0-1.21,0.03-2.05,0.08-2.52l-2.1,0.08v-2.16h6.38v1.85c-0.5,0.02-0.89,0.08-1.15,0.18c-0.26,0.1-0.47,0.32-0.62,0.66
			s-0.22,0.87-0.22,1.6v15.6h-2.38L149.43,28.98z"/>
		<path fill="#007540" d="M168.19,39.69c-1.05-0.61-1.86-1.47-2.44-2.59c-0.58-1.12-0.87-2.43-0.87-3.92c0-1.31,0.29-2.53,0.88-3.68
			s1.41-2.07,2.48-2.76c1.06-0.69,2.28-1.04,3.64-1.04c1.81,0,3.32,0.53,4.52,1.6s1.8,2.84,1.78,5.32l-9.18,0.17
			c0,1.64,0.31,2.94,0.94,3.89c0.63,0.95,1.63,1.43,3.01,1.43c0.65,0,1.35-0.17,2.1-0.5c0.75-0.34,1.42-0.87,2.02-1.6l1.26,1.18
			c-1.59,2.28-3.76,3.42-6.52,3.42C170.44,40.6,169.24,40.3,168.19,39.69z M174.33,30.83c-0.06-2.11-0.82-3.16-2.3-3.16
			c-0.8,0-1.44,0.28-1.92,0.85s-0.79,1.34-0.94,2.31H174.33z"/>
		<path fill="#007540" d="M182.5,30.52c-0.21-0.58-0.35-1.02-0.45-1.33s-0.18-0.63-0.25-0.97l-1.09,0.06v-2.13h6.72v1.79
			c-0.73,0.02-1.09,0.41-1.09,1.18c0,0.19,0.06,0.52,0.17,1.01l0.95,3.42c0.26,0.95,0.46,1.84,0.59,2.66h0.03
			c0.04-0.15,0.11-0.5,0.22-1.06c0.11-0.56,0.28-1.21,0.5-1.96l2.04-7.03h3.05l2.24,7.73c0.13,0.47,0.35,1.31,0.67,2.52h0.03
			c0.07-0.54,0.29-1.35,0.64-2.44l1.09-3.56c0.13-0.45,0.26-0.85,0.39-1.22c0.13-0.36,0.27-0.7,0.42-0.99v-0.03l-1.6,0.11v-2.13
			h5.32v1.79c-0.99,0-1.83,1.01-2.52,3.02l-3.19,9.27h-2.97l-1.93-5.96c-0.3-0.93-0.63-2.08-0.98-3.44h-0.03
			c-0.21,1.12-0.63,2.72-1.29,4.79l-1.54,4.62h-2.77L182.5,30.52z"/>
		<path fill="#007540" d="M208.04,35.23l0.06-6.75h-1.9v-2.32c0.6,0,1.16-0.19,1.69-0.56c0.53-0.37,0.98-0.83,1.36-1.37
			c0.37-0.54,0.63-1.06,0.78-1.57h2.07l-0.03,3.5h3.56v2.16l-3.56,0.08l-0.03,6.89c0,1.81,0.56,2.72,1.68,2.72
			c0.9,0,1.75-0.56,2.55-1.68l1.34,1.26c-0.88,1.29-1.75,2.11-2.63,2.48c-0.88,0.36-1.74,0.55-2.58,0.55
			C209.49,40.6,208.04,38.81,208.04,35.23z"/>
		<path fill="#007540" d="M231.33,39.29c-1.46-0.88-2.59-2.08-3.39-3.6c-0.8-1.52-1.2-3.21-1.2-5.05c0-1.77,0.38-3.47,1.13-5.08
			c0.76-1.61,1.87-2.93,3.35-3.93c1.47-1.01,3.25-1.51,5.32-1.51c0.75,0,1.55,0.12,2.42,0.36c0.87,0.24,1.67,0.58,2.39,1.01h0.03
			l-0.11-1.18h2.16v6.52h-1.82c-0.5-3.1-2.07-4.67-4.7-4.7c-1.25,0-2.31,0.37-3.18,1.11c-0.87,0.74-1.52,1.71-1.95,2.93
			c-0.43,1.21-0.64,2.52-0.64,3.92c0,1.61,0.23,3.03,0.7,4.28c0.47,1.25,1.14,2.23,2.02,2.93c0.88,0.7,1.93,1.05,3.16,1.05
			c1.19,0,2.37-0.31,3.51-0.92c1.15-0.62,2.11-1.46,2.9-2.52l1.34,1.23c-1.23,1.7-2.59,2.87-4.06,3.51
			c-1.48,0.64-2.93,0.97-4.37,0.97C234.46,40.6,232.79,40.16,231.33,39.29z"/>
		<path fill="#007540" d="M247.57,38.33c0.71,0,1.16-0.2,1.36-0.59c0.2-0.39,0.29-1.03,0.29-1.9v-4.65c0-0.88,0.04-1.69,0.11-2.44
			l-1.96,0.08v-2.13c1.18,0,2.13-0.08,2.86-0.25s1.21-0.36,1.46-0.59h1.51v9.77c0,0.9-0.04,1.72-0.11,2.46
			c0.6-0.06,1.2-0.08,1.82-0.08v2.13h-7.34V38.33z M249.95,22.72c-0.41-0.44-0.62-0.98-0.62-1.61c0-0.63,0.21-1.18,0.64-1.64
			c0.43-0.46,0.93-0.69,1.51-0.69c0.6,0,1.1,0.22,1.5,0.67c0.4,0.45,0.6,1,0.6,1.65c0,0.65-0.19,1.19-0.57,1.62
			c-0.38,0.43-0.88,0.64-1.5,0.64C250.89,23.38,250.36,23.16,249.95,22.72z"/>
		<path fill="#007540" d="M258.74,35.23l0.06-6.75h-1.9v-2.32c0.6,0,1.16-0.19,1.69-0.56c0.53-0.37,0.98-0.83,1.36-1.37
			c0.37-0.54,0.63-1.06,0.78-1.57h2.07l-0.03,3.5h3.56v2.16l-3.56,0.08l-0.03,6.89c0,1.81,0.56,2.72,1.68,2.72
			c0.9,0,1.75-0.56,2.55-1.68l1.34,1.26c-0.88,1.29-1.75,2.11-2.63,2.48c-0.88,0.36-1.74,0.55-2.58,0.55
			C260.2,40.6,258.74,38.81,258.74,35.23z"/>
		<path fill="#007540" d="M271.71,47.1c-0.49-0.43-0.73-0.98-0.73-1.65c0-0.52,0.17-0.98,0.52-1.36c0.35-0.38,0.78-0.57,1.3-0.57
			c0.41,0,0.75,0.14,1.02,0.43c0.27,0.29,0.41,0.67,0.41,1.13c0,0.15-0.01,0.27-0.03,0.36v0.03c0.35,0,0.75-0.45,1.19-1.34
			s0.84-1.98,1.19-3.25l-4.42-8.88c-0.49-0.93-0.81-1.67-0.98-2.2c-0.17-0.53-0.29-1.06-0.36-1.58l-1.29,0.06v-2.13h6.97v1.79
			c-0.78,0.09-1.18,0.46-1.18,1.09c0,0.32,0.09,0.68,0.28,1.09l2.74,6.27h0.03l0.59-1.88c0.21-0.71,0.6-1.94,1.18-3.7
			c0.41-1.31,0.8-2.18,1.18-2.63v-0.03l-1.6,0.11v-2.13h4.98v1.79c-0.54,0.13-1.01,0.47-1.4,1.01c-0.39,0.54-0.75,1.27-1.06,2.18
			l-3.5,10c-0.56,1.66-1.07,2.95-1.54,3.86c-0.47,0.91-0.98,1.6-1.55,2.06s-1.27,0.69-2.11,0.69
			C272.8,47.74,272.19,47.53,271.71,47.1z"/>
	</g>
	<g>
		<path fill="#86B29E" d="M82.37,62.12c0.23-0.01,0.4-0.04,0.52-0.08c0.12-0.05,0.21-0.15,0.28-0.3c0.07-0.15,0.1-0.39,0.1-0.72
			V56.2c0-0.47,0.02-0.85,0.05-1.13l-0.95,0.04v-0.97h3.62v0.83c-0.23,0.01-0.4,0.04-0.52,0.08c-0.12,0.05-0.21,0.15-0.28,0.3
			c-0.07,0.15-0.1,0.39-0.1,0.72v4.83c0,0.45-0.02,0.82-0.05,1.11h1.69c0.5-0.01,0.89-0.19,1.17-0.54c0.28-0.35,0.42-0.86,0.42-1.53
			h0.84l-0.08,3.02h-6.72V62.12z"/>
		<path fill="#86B29E" d="M91.24,62.12c0.23-0.01,0.4-0.04,0.52-0.08c0.12-0.05,0.21-0.15,0.28-0.3c0.07-0.15,0.1-0.39,0.1-0.72
			V56.2c0-0.47,0.02-0.85,0.05-1.13l-0.95,0.04v-0.97h3.62v0.83c-0.23,0.01-0.4,0.04-0.52,0.08c-0.12,0.05-0.21,0.15-0.28,0.3
			c-0.07,0.15-0.1,0.39-0.1,0.72v4.83c0,0.47-0.02,0.85-0.05,1.13c0.27-0.02,0.58-0.04,0.94-0.04v0.97h-3.62V62.12z"/>
		<path fill="#86B29E" d="M97.38,62.12c0.23-0.01,0.4-0.04,0.52-0.08c0.12-0.05,0.21-0.15,0.28-0.3c0.07-0.15,0.1-0.39,0.1-0.72
			V56.2c0-0.47,0.02-0.85,0.05-1.13l-0.95,0.04v-0.97h6.3l0.08,2.44h-0.83c0-0.62-0.15-1.05-0.45-1.29
			c-0.3-0.24-0.66-0.35-1.08-0.33l-0.45,0.01c-0.2,0.01-0.36,0.04-0.48,0.08c-0.12,0.05-0.21,0.15-0.27,0.31s-0.09,0.4-0.09,0.71
			v2.19h1.3c-0.01-0.11-0.03-0.47-0.05-1.08h0.97v3.06h-0.83c0-0.34-0.05-0.59-0.16-0.75c-0.1-0.16-0.24-0.27-0.42-0.31
			c-0.17-0.04-0.39-0.06-0.66-0.05h-0.15v1.76c0,0.47-0.02,0.85-0.05,1.13c0.27-0.02,0.64-0.04,1.12-0.04v0.97h-3.79V62.12z"/>
		<path fill="#86B29E" d="M105.83,62.12c0.23-0.01,0.4-0.04,0.52-0.08c0.12-0.05,0.21-0.15,0.28-0.3c0.07-0.15,0.1-0.39,0.1-0.72
			V56.2c0-0.47,0.02-0.85,0.05-1.13l-0.95,0.04v-0.97h6.3l0.08,2.44h-0.83c0-0.62-0.15-1.05-0.45-1.29
			c-0.3-0.24-0.66-0.35-1.08-0.33l-0.45,0.01c-0.2,0.01-0.36,0.04-0.48,0.08c-0.12,0.05-0.21,0.15-0.27,0.31s-0.09,0.4-0.09,0.71
			v1.89h1.47c-0.01-0.14-0.02-0.51-0.05-1.1h0.97v3.06h-0.83c0-0.34-0.05-0.58-0.16-0.74s-0.24-0.26-0.41-0.31
			c-0.17-0.05-0.39-0.06-0.67-0.06l-0.33,0.01v2.07c0,0.45-0.02,0.82-0.05,1.11h1.69c0.43,0,0.79-0.15,1.09-0.43
			c0.3-0.29,0.45-0.75,0.45-1.38h0.82l-0.06,2.77h-6.65V62.12z"/>
		<path fill="#86B29E" d="M118.27,62.12c0.23-0.01,0.4-0.04,0.52-0.08c0.12-0.05,0.21-0.15,0.28-0.3c0.07-0.15,0.1-0.39,0.1-0.72
			V56.2c0-0.47,0.02-0.85,0.05-1.13l-0.95,0.04v-0.97l3.49-0.03c1.01-0.01,1.8,0.17,2.37,0.54s0.86,0.91,0.86,1.62
			c0,0.41-0.15,0.79-0.46,1.14s-0.76,0.6-1.35,0.76v0.01c0.81,0.13,1.42,0.4,1.83,0.81c0.41,0.41,0.62,0.89,0.62,1.45
			c0,0.8-0.28,1.42-0.85,1.85c-0.57,0.44-1.3,0.66-2.21,0.66h-4.28V62.12z M122.16,62.04c0.5-0.03,0.87-0.18,1.11-0.47
			c0.24-0.29,0.37-0.68,0.37-1.17c0-0.54-0.16-0.93-0.47-1.17c-0.31-0.24-0.7-0.36-1.16-0.36s-0.8,0-1.02,0.01v2.05
			c0,0.45-0.02,0.82-0.05,1.11C121.49,62.06,121.9,62.05,122.16,62.04z M121.65,57.99c0.5-0.01,0.85-0.17,1.08-0.47
			s0.33-0.71,0.33-1.22c0-0.45-0.13-0.79-0.38-1c-0.25-0.21-0.56-0.31-0.92-0.31c-0.18,0-0.32,0.02-0.42,0.06
			c-0.11,0.04-0.19,0.14-0.25,0.3s-0.09,0.39-0.09,0.7V58L121.65,57.99z"/>
		<path fill="#86B29E" d="M127.35,62.12c0.23-0.01,0.4-0.04,0.52-0.08c0.12-0.05,0.21-0.15,0.28-0.3c0.07-0.15,0.1-0.39,0.1-0.72
			V56.2c0-0.47,0.02-0.85,0.05-1.13l-0.95,0.04v-0.97h3.62v0.83c-0.23,0.01-0.4,0.04-0.52,0.08c-0.12,0.05-0.21,0.15-0.28,0.3
			c-0.07,0.15-0.1,0.39-0.1,0.72v4.83c0,0.45-0.02,0.82-0.05,1.11h1.69c0.5-0.01,0.89-0.19,1.17-0.54c0.28-0.35,0.42-0.86,0.42-1.53
			h0.84l-0.08,3.02h-6.72V62.12z"/>
		<path fill="#86B29E" d="M137.42,62.49c-0.66-0.44-1.13-1.02-1.44-1.71s-0.45-1.44-0.45-2.23c0-0.75,0.17-1.47,0.5-2.18
			s0.84-1.29,1.51-1.75c0.67-0.46,1.47-0.69,2.41-0.69c0.97,0,1.78,0.23,2.44,0.69c0.66,0.46,1.15,1.04,1.47,1.75
			s0.48,1.43,0.48,2.18c0,0.73-0.17,1.45-0.5,2.16c-0.34,0.71-0.84,1.3-1.51,1.76s-1.47,0.69-2.41,0.69
			C138.91,63.15,138.08,62.93,137.42,62.49z M141.38,61.72c0.34-0.34,0.59-0.78,0.74-1.31c0.15-0.53,0.23-1.08,0.23-1.65
			c0-1.19-0.21-2.14-0.63-2.85s-1.04-1.06-1.86-1.06c-0.55,0-1.01,0.18-1.36,0.53c-0.35,0.35-0.6,0.8-0.76,1.34s-0.23,1.1-0.23,1.68
			c0,0.59,0.08,1.18,0.25,1.76c0.17,0.59,0.44,1.08,0.83,1.48c0.38,0.4,0.87,0.6,1.46,0.6C140.59,62.23,141.03,62.06,141.38,61.72z"
			/>
		<path fill="#86B29E" d="M147.97,62.56c-0.64-0.39-1.13-0.93-1.47-1.61s-0.51-1.44-0.51-2.29c0-0.8,0.17-1.56,0.5-2.29
			s0.83-1.32,1.49-1.77c0.66-0.45,1.46-0.68,2.39-0.68c0.36,0,0.77,0.05,1.23,0.16c0.46,0.11,0.85,0.26,1.17,0.45h0.01l-0.05-0.53
			h0.97v2.94h-0.82c-0.11-0.68-0.37-1.2-0.79-1.56c-0.42-0.36-0.94-0.55-1.55-0.55c-0.55,0-1.02,0.17-1.41,0.5
			c-0.39,0.33-0.68,0.77-0.87,1.32s-0.29,1.13-0.29,1.76c0,1.12,0.23,2.02,0.69,2.71c0.46,0.69,1.11,1.03,1.94,1.03
			c0.27,0,0.58-0.03,0.93-0.09s0.63-0.14,0.85-0.25v-1.17c0-0.47,0.02-0.85,0.05-1.13c-0.22,0.02-0.42,0.03-0.62,0.03l-0.33,0.01
			v-0.97h3.35v0.83c-0.21,0.01-0.37,0.04-0.49,0.09c-0.12,0.05-0.21,0.15-0.26,0.31c-0.06,0.16-0.09,0.39-0.09,0.7v2.02h-0.3
			c-0.19,0-0.38,0.02-0.57,0.06s-0.43,0.11-0.72,0.2c-0.44,0.13-0.8,0.22-1.1,0.28s-0.63,0.09-1.01,0.09
			C149.38,63.15,148.62,62.96,147.97,62.56z"/>
	</g>
	<g transform="translate(-72.584 -9.3806)">
		<path fill="#A2A4B4" d="M135.69,45.31c-0.12-1-0.02-4.06-0.54-5.91c-0.48-1.66-1.66-4.7-2.73-6.58c0.1-0.52,4.81-6.7,4.87-12.63
			c0.08-5.93-7.43-9.97-16.3-9.8l0,0c-8.87,0.15-12.42,2.77-17.32,4.43c-5.76,1.96-10.24,3.83-8.99,4.18
			c1.96,0.56,16.88-4.64,26.31-4.62c9.3,0.02,9.76,3.37,9.22,5.83c-0.5,2.27-2.12,3.04-6.14,4.85c-1-0.4-2.37-4.75-4.58-4.68
			c-2.19,0.06-3.14,1.83-3.14,1.83c-1.1,1.1-3.5-2.48-4.12-0.17c-0.48,1.85,1.44,0.87,1.44,1.58c0.04,1.37-5.16-0.17-4.85,1.94
			c0.33,2.25,4.31-0.46,4.56,0.37s-4.35,1.54-3.48,2.93c1.1,1.71,4.95-2.27,5.62-1.6c0.71,0.67-2.83,1.48-1.14,2.79
			c1.73,1.33,2.52-2.5,3.62-2.52c1.1-0.02,1.04,1.04-0.87,2.79c-1.39,1.1-2.85,2.46-4.06,4.12c-1.31,1.79-4.1,6.33-8.03,9.64
			c-1.23,1.04-3.12,2.04-5.24,3.02c-0.71-1.31-2.33-3.58-4.91-2.89c-2.19,0.58-3.27,4.06-3.75,6.26c-2.96,1.04-5.74,2.02-7.49,2.81
			c-4.99,2.25-4.33,3-6.06,5.12c-1.48,1.81-3.1,1.75-3.1,3.23c0,1.48,0.27,2.14,0.27,2.14s-2.71,6.62,0.12,8.2
			c6.99,3.89,13.72-4.35,14.53-4.85c0.83-0.5,1.5-0.12,3.54-2.56c0.21-0.25,1.35-0.6,1.81-0.27c0.44,0.31,1.6,3.79,1.29,4.72
			c-0.44,1.33-4.7,2.66-5.37,2.66c-0.67,0-0.48-3.18-2.04-2.25c-1.6,0.96,0.65,1.91,0.29,3.1c-0.46,1.56-5.24-0.96-5.29,0.89
			c-0.04,2.37,3.7,0.71,4,1.75c0.29,1.04-5.43,5.74-2.75,7.14c1.6,0.83,2.96-6.14,4.47-5.18c0.94,0.58-1.62,3.64,0.52,4.1
			c2.29,0.48,0.85-2.52,1.71-3.81c0.85-1.29,7.99-4.99,8.37-6.18c0.65-2-2.04-6.62-1.23-7.76c0.33-0.46,15.88-5.62,20.85-9.97
			c3.33-2.91,8.47-10.82,11.16-16.4c0.15,1.98,0.06,4.25,0,4.83c-0.1,0.96-0.21,2.12-1.37,2.54c-1.17,0.42-1.96-1.17-2.44,0.31
			c-0.48,1.46,1.21,0.85,1.04,1.96s-3.73,1.48-2.71,3.1c1.02,1.62,3.56-2.66,4.22-1.19c0.67,1.48-3.7,5.1-1.75,5.99
			s2.62-5.47,4.14-4.89c1.52,0.56-0.44,6.7,1.75,6.7s-0.31-7.68,0.81-7.8c1.12-0.12,3.35,4.99,4.81,2.89
			C140.7,49.49,136.17,49.16,135.69,45.31z M88.61,66.37c-0.94,0.96-2.31,1.14-3.04,0.42s-0.58-2.1,0.35-3.06s2.31-1.14,3.04-0.42
			S89.55,65.41,88.61,66.37z"/>
		
			<ellipse transform="matrix(0.6795 -0.7337 0.7337 0.6795 -20.0122 84.8028)" fill="#A2A4B4" cx="87.06" cy="65.31" rx="1.39" ry="1.14"/>
	</g>
</g>
</svg>
