<?xml version="1.0" encoding="utf-8"?>
<svg version="1.1" width="207" height="131" xmlns="http://www.w3.org/2000/svg" xmlns:xlink="http://www.w3.org/1999/xlink" x="0px"
	 y="0px" viewBox="0 0 206.65 131.09" enable-background="new 0 0 206.65 131.09" xml:space="preserve">
<g>
	<g>
		<path fill="#FFFFFF" d="M5.82,104.86c0.5-0.02,0.89-0.08,1.15-0.18c0.26-0.1,0.47-0.32,0.62-0.66c0.15-0.34,0.22-0.87,0.22-1.6
			V89.01H6.52c-1.1,0.02-1.95,0.39-2.55,1.12c-0.6,0.73-0.9,1.83-0.9,3.3H1.23l0.14-6.33h16.97l0.17,6.33h-1.85
			c0-1.47-0.3-2.59-0.91-3.35c-0.61-0.76-1.45-1.12-2.53-1.11h-1.34v13.13c0,1.25-0.04,2.09-0.11,2.52
			c0.62-0.06,1.36-0.08,2.24-0.08v2.16H5.82V104.86z"/>
		<path fill="#FFFFFF" d="M22.2,104.89c0.5,0,0.87-0.1,1.11-0.29c0.23-0.2,0.38-0.46,0.45-0.8s0.1-0.8,0.1-1.4V90.89
			c0-0.9,0.04-1.71,0.11-2.44L22,88.54v-2.13c1.18,0,2.13-0.08,2.86-0.25c0.73-0.17,1.21-0.36,1.46-0.59h1.51v8.26
			c0.54-0.43,1.21-0.8,2.02-1.11c0.8-0.31,1.49-0.46,2.07-0.46c1.68,0,2.88,0.49,3.61,1.46c0.73,0.97,1.1,2.55,1.12,4.73v3.75
			c0,0.9-0.04,1.72-0.11,2.46c0.6-0.06,1.2-0.08,1.82-0.08v2.13h-7.36v-1.82c0.71,0,1.17-0.2,1.37-0.59
			c0.21-0.39,0.31-1.03,0.31-1.9l-0.03-3.98c0-1.23-0.18-2.14-0.55-2.72c-0.36-0.58-0.94-0.87-1.72-0.87c-0.45,0-0.91,0.1-1.37,0.29
			c-0.47,0.2-0.86,0.44-1.18,0.74v6.33c0,0.9-0.04,1.72-0.11,2.46c0.62-0.06,1.22-0.08,1.82-0.08v2.13H22.2V104.89z"/>
		<path fill="#FFFFFF" d="M43.9,106.25c-1.04-0.61-1.86-1.47-2.44-2.59c-0.58-1.12-0.87-2.43-0.87-3.92c0-1.31,0.29-2.53,0.88-3.68
			c0.59-1.15,1.41-2.07,2.48-2.76c1.06-0.69,2.28-1.04,3.64-1.04c1.81,0,3.32,0.53,4.52,1.6c1.2,1.06,1.8,2.84,1.78,5.32l-9.18,0.17
			c0,1.64,0.31,2.94,0.94,3.89c0.63,0.95,1.63,1.43,3.01,1.43c0.65,0,1.35-0.17,2.1-0.5c0.75-0.34,1.42-0.87,2.02-1.6l1.26,1.18
			c-1.59,2.28-3.76,3.42-6.52,3.42C46.15,107.16,44.95,106.85,43.9,106.25z M50.03,97.38c-0.06-2.11-0.82-3.16-2.3-3.16
			c-0.8,0-1.44,0.29-1.92,0.85c-0.48,0.57-0.79,1.34-0.94,2.31H50.03z"/>
		<path fill="#FFFFFF" d="M70.61,95.54c-0.47-0.6-0.98-1.3-1.54-2.1h-0.03l0.06,8.68c0,1.04-0.04,1.88-0.11,2.52
			c0.6-0.06,1.3-0.08,2.1-0.08v2.16H64.7v-1.85c0.5-0.02,0.89-0.08,1.15-0.18c0.26-0.1,0.47-0.32,0.62-0.66s0.22-0.87,0.22-1.6
			L66.64,91.7c0-1.25,0.04-2.09,0.11-2.52l-2.13,0.08v-2.16h4.4l8.57,10.81c0.78,1.03,1.44,1.91,1.96,2.66h0.03V91.7
			c0-1.21,0.03-2.05,0.08-2.52l-2.1,0.08v-2.16h6.38v1.85c-0.5,0.02-0.89,0.08-1.15,0.18c-0.26,0.1-0.47,0.32-0.62,0.66
			s-0.22,0.87-0.22,1.6v15.6h-2.38L70.61,95.54z"/>
		<path fill="#FFFFFF" d="M89.37,106.25c-1.04-0.61-1.86-1.47-2.44-2.59c-0.58-1.12-0.87-2.43-0.87-3.92c0-1.31,0.29-2.53,0.88-3.68
			c0.59-1.15,1.41-2.07,2.48-2.76c1.06-0.69,2.28-1.04,3.64-1.04c1.81,0,3.32,0.53,4.52,1.6c1.2,1.06,1.8,2.84,1.78,5.32l-9.18,0.17
			c0,1.64,0.31,2.94,0.94,3.89c0.63,0.95,1.63,1.43,3.01,1.43c0.65,0,1.35-0.17,2.1-0.5c0.75-0.34,1.42-0.87,2.02-1.6l1.26,1.18
			c-1.59,2.28-3.76,3.42-6.52,3.42C91.62,107.16,90.42,106.85,89.37,106.25z M95.5,97.38c-0.06-2.11-0.82-3.16-2.3-3.16
			c-0.8,0-1.44,0.29-1.92,0.85c-0.48,0.57-0.79,1.34-0.94,2.31H95.5z"/>
		<path fill="#FFFFFF" d="M103.68,97.08c-0.21-0.58-0.35-1.02-0.45-1.33c-0.09-0.31-0.18-0.63-0.25-0.97l-1.09,0.06v-2.13h6.72v1.79
			c-0.73,0.02-1.09,0.41-1.09,1.18c0,0.19,0.06,0.52,0.17,1.01l0.95,3.42c0.26,0.95,0.46,1.84,0.59,2.66h0.03
			c0.04-0.15,0.11-0.5,0.22-1.06c0.11-0.56,0.28-1.21,0.5-1.96l2.04-7.03h3.05l2.24,7.73c0.13,0.47,0.35,1.31,0.67,2.52h0.03
			c0.07-0.54,0.29-1.35,0.64-2.44l1.09-3.56c0.13-0.45,0.26-0.85,0.39-1.22s0.27-0.7,0.42-0.99v-0.03l-1.6,0.11v-2.13h5.32v1.79
			c-0.99,0-1.83,1.01-2.52,3.02l-3.19,9.27h-2.97l-1.93-5.96c-0.3-0.93-0.63-2.08-0.98-3.44h-0.03c-0.21,1.12-0.63,2.72-1.29,4.79
			l-1.54,4.62h-2.77L103.68,97.08z"/>
		<path fill="#FFFFFF" d="M129.22,101.78l0.06-6.75h-1.9v-2.32c0.6,0,1.16-0.19,1.69-0.56c0.53-0.37,0.98-0.83,1.36-1.37
			c0.37-0.54,0.63-1.06,0.78-1.57h2.07l-0.03,3.5h3.56v2.16l-3.56,0.08l-0.03,6.89c0,1.81,0.56,2.72,1.68,2.72
			c0.9,0,1.75-0.56,2.55-1.68l1.34,1.26c-0.88,1.29-1.75,2.11-2.63,2.48c-0.88,0.36-1.74,0.55-2.58,0.55
			C130.67,107.16,129.22,105.37,129.22,101.78z"/>
		<path fill="#FFFFFF" d="M152.51,105.84c-1.46-0.88-2.59-2.08-3.39-3.6c-0.8-1.52-1.2-3.21-1.2-5.05c0-1.77,0.38-3.47,1.13-5.08
			c0.76-1.62,1.87-2.93,3.35-3.93c1.47-1.01,3.25-1.51,5.32-1.51c0.75,0,1.55,0.12,2.42,0.36s1.67,0.58,2.39,1.01h0.03l-0.11-1.18
			h2.16v6.52h-1.82c-0.5-3.1-2.07-4.67-4.7-4.7c-1.25,0-2.31,0.37-3.18,1.11c-0.87,0.74-1.52,1.71-1.95,2.93
			c-0.43,1.21-0.64,2.52-0.64,3.92c0,1.61,0.23,3.03,0.7,4.28s1.14,2.23,2.02,2.93c0.88,0.7,1.93,1.05,3.16,1.05
			c1.19,0,2.37-0.31,3.51-0.92c1.15-0.62,2.11-1.46,2.9-2.52l1.34,1.23c-1.23,1.7-2.59,2.87-4.06,3.51
			c-1.47,0.64-2.93,0.97-4.37,0.97C155.64,107.16,153.97,106.72,152.51,105.84z"/>
		<path fill="#FFFFFF" d="M168.75,104.89c0.71,0,1.16-0.2,1.36-0.59c0.2-0.39,0.29-1.03,0.29-1.9v-4.65c0-0.88,0.04-1.69,0.11-2.44
			l-1.96,0.08v-2.13c1.18,0,2.13-0.08,2.86-0.25c0.73-0.17,1.21-0.37,1.46-0.59h1.51v9.77c0,0.9-0.04,1.72-0.11,2.46
			c0.6-0.06,1.2-0.08,1.82-0.08v2.13h-7.34V104.89z M171.13,89.28c-0.41-0.44-0.62-0.98-0.62-1.61c0-0.63,0.21-1.18,0.64-1.64
			c0.43-0.46,0.93-0.69,1.51-0.69c0.6,0,1.1,0.22,1.5,0.67c0.4,0.45,0.6,1,0.6,1.65s-0.19,1.19-0.57,1.62
			c-0.38,0.43-0.88,0.64-1.5,0.64C172.06,89.94,171.54,89.72,171.13,89.28z"/>
		<path fill="#FFFFFF" d="M179.92,101.78l0.06-6.75h-1.9v-2.32c0.6,0,1.16-0.19,1.69-0.56c0.53-0.37,0.98-0.83,1.36-1.37
			c0.37-0.54,0.63-1.06,0.78-1.57h2.07l-0.03,3.5h3.56v2.16l-3.56,0.08l-0.03,6.89c0,1.81,0.56,2.72,1.68,2.72
			c0.9,0,1.75-0.56,2.55-1.68l1.34,1.26c-0.88,1.29-1.75,2.11-2.63,2.48c-0.88,0.36-1.74,0.55-2.58,0.55
			C181.38,107.16,179.92,105.37,179.92,101.78z"/>
		<path fill="#FFFFFF" d="M192.89,113.65c-0.49-0.43-0.73-0.98-0.73-1.65c0-0.52,0.17-0.98,0.52-1.36c0.35-0.38,0.78-0.57,1.3-0.57
			c0.41,0,0.75,0.14,1.02,0.43c0.27,0.29,0.41,0.67,0.41,1.13c0,0.15-0.01,0.27-0.03,0.36v0.03c0.35,0,0.75-0.45,1.19-1.34
			c0.44-0.9,0.83-1.98,1.19-3.25l-4.42-8.88c-0.49-0.93-0.81-1.67-0.98-2.2c-0.17-0.53-0.29-1.06-0.36-1.58l-1.29,0.06v-2.13h6.97
			v1.79c-0.78,0.09-1.18,0.46-1.18,1.09c0,0.32,0.09,0.68,0.28,1.09l2.74,6.27h0.03l0.59-1.88c0.21-0.71,0.6-1.94,1.18-3.7
			c0.41-1.31,0.8-2.18,1.18-2.63v-0.03l-1.6,0.11v-2.13h4.98v1.79c-0.54,0.13-1.01,0.47-1.4,1.01c-0.39,0.54-0.75,1.27-1.06,2.18
			l-3.5,10c-0.56,1.66-1.07,2.95-1.54,3.86s-0.98,1.6-1.55,2.06c-0.57,0.46-1.27,0.69-2.11,0.69
			C193.98,114.3,193.37,114.08,192.89,113.65z"/>
	</g>
	<g>
		<path fill="#FFFFFF" d="M67.44,128.68c0.23-0.01,0.4-0.04,0.52-0.08c0.12-0.05,0.21-0.14,0.28-0.3s0.1-0.39,0.1-0.72v-4.83
			c0-0.47,0.02-0.85,0.05-1.13l-0.95,0.04v-0.97h3.62v0.83c-0.23,0.01-0.4,0.04-0.52,0.08c-0.12,0.05-0.21,0.15-0.28,0.3
			c-0.07,0.15-0.1,0.39-0.1,0.72v4.83c0,0.45-0.02,0.82-0.05,1.11h1.69c0.5-0.01,0.89-0.19,1.17-0.54c0.28-0.35,0.42-0.86,0.42-1.53
			h0.84l-0.08,3.02h-6.72V128.68z"/>
		<path fill="#FFFFFF" d="M76.31,128.68c0.23-0.01,0.4-0.04,0.52-0.08c0.12-0.05,0.21-0.14,0.28-0.3s0.1-0.39,0.1-0.72v-4.83
			c0-0.47,0.02-0.85,0.05-1.13l-0.95,0.04v-0.97h3.62v0.83c-0.23,0.01-0.4,0.04-0.52,0.08c-0.12,0.05-0.21,0.15-0.28,0.3
			c-0.07,0.15-0.1,0.39-0.1,0.72v4.83c0,0.47-0.02,0.85-0.05,1.13c0.27-0.02,0.58-0.04,0.94-0.04v0.97h-3.62V128.68z"/>
		<path fill="#FFFFFF" d="M82.45,128.68c0.23-0.01,0.4-0.04,0.52-0.08c0.12-0.05,0.21-0.14,0.28-0.3c0.07-0.15,0.1-0.39,0.1-0.72
			v-4.83c0-0.47,0.02-0.85,0.05-1.13l-0.95,0.04v-0.97h6.3l0.08,2.44h-0.83c0-0.62-0.15-1.05-0.45-1.29
			c-0.3-0.24-0.66-0.35-1.08-0.33l-0.45,0.01c-0.2,0.01-0.36,0.04-0.48,0.08c-0.12,0.05-0.21,0.15-0.27,0.31
			c-0.06,0.16-0.09,0.39-0.09,0.71v2.19h1.3c-0.01-0.11-0.03-0.47-0.05-1.08h0.97v3.06h-0.83c0-0.34-0.05-0.59-0.16-0.75
			c-0.11-0.16-0.24-0.27-0.42-0.31s-0.39-0.06-0.66-0.05h-0.15v1.76c0,0.47-0.02,0.85-0.05,1.13c0.27-0.02,0.64-0.04,1.12-0.04v0.97
			h-3.79V128.68z"/>
		<path fill="#FFFFFF" d="M90.9,128.68c0.23-0.01,0.4-0.04,0.52-0.08c0.12-0.05,0.21-0.14,0.28-0.3s0.1-0.39,0.1-0.72v-4.83
			c0-0.47,0.02-0.85,0.05-1.13l-0.95,0.04v-0.97h6.3l0.08,2.44h-0.83c0-0.62-0.15-1.05-0.45-1.29c-0.3-0.24-0.66-0.35-1.08-0.33
			l-0.45,0.01c-0.2,0.01-0.36,0.04-0.48,0.08c-0.12,0.05-0.21,0.15-0.27,0.31c-0.06,0.16-0.09,0.39-0.09,0.71v1.89h1.47
			c-0.01-0.14-0.03-0.51-0.05-1.1h0.97v3.06h-0.83c0-0.34-0.05-0.58-0.16-0.74c-0.11-0.16-0.24-0.26-0.41-0.31
			c-0.17-0.04-0.39-0.06-0.67-0.06l-0.33,0.01v2.07c0,0.45-0.02,0.82-0.05,1.11h1.69c0.43,0,0.79-0.15,1.09-0.43
			c0.3-0.29,0.45-0.75,0.45-1.38h0.82l-0.06,2.77H90.9V128.68z"/>
		<path fill="#FFFFFF" d="M103.34,128.68c0.23-0.01,0.4-0.04,0.52-0.08c0.12-0.05,0.21-0.14,0.28-0.3c0.07-0.15,0.1-0.39,0.1-0.72
			v-4.83c0-0.47,0.02-0.85,0.05-1.13l-0.95,0.04v-0.97l3.49-0.03c1.01-0.01,1.8,0.17,2.37,0.54s0.86,0.91,0.86,1.62
			c0,0.41-0.15,0.79-0.46,1.14s-0.76,0.6-1.35,0.76v0.01c0.81,0.13,1.42,0.4,1.83,0.81c0.41,0.41,0.62,0.89,0.62,1.45
			c0,0.8-0.28,1.42-0.85,1.85c-0.57,0.44-1.3,0.66-2.21,0.66h-4.28V128.68z M107.23,128.6c0.5-0.03,0.87-0.18,1.11-0.47
			c0.24-0.29,0.37-0.68,0.37-1.17c0-0.54-0.16-0.93-0.47-1.17c-0.31-0.24-0.7-0.36-1.16-0.36s-0.8,0-1.02,0.01v2.05
			c0,0.45-0.02,0.82-0.05,1.11C106.56,128.61,106.97,128.61,107.23,128.6z M106.71,124.54c0.5-0.01,0.85-0.17,1.08-0.47
			s0.33-0.71,0.33-1.22c0-0.45-0.13-0.79-0.38-1s-0.56-0.32-0.92-0.32c-0.18,0-0.32,0.02-0.42,0.06c-0.11,0.04-0.19,0.14-0.25,0.3
			c-0.06,0.16-0.09,0.39-0.09,0.7v1.95L106.71,124.54z"/>
		<path fill="#FFFFFF" d="M112.42,128.68c0.23-0.01,0.4-0.04,0.52-0.08c0.12-0.05,0.21-0.14,0.28-0.3s0.1-0.39,0.1-0.72v-4.83
			c0-0.47,0.02-0.85,0.05-1.13l-0.95,0.04v-0.97h3.62v0.83c-0.23,0.01-0.4,0.04-0.52,0.08c-0.12,0.05-0.21,0.15-0.28,0.3
			c-0.07,0.15-0.1,0.39-0.1,0.72v4.83c0,0.45-0.02,0.82-0.05,1.11h1.69c0.5-0.01,0.89-0.19,1.17-0.54c0.28-0.35,0.42-0.86,0.42-1.53
			h0.84l-0.08,3.02h-6.72V128.68z"/>
		<path fill="#FFFFFF" d="M122.49,129.04c-0.66-0.45-1.13-1.02-1.44-1.71c-0.3-0.7-0.45-1.44-0.45-2.23c0-0.75,0.17-1.47,0.5-2.18
			c0.34-0.71,0.84-1.29,1.51-1.75c0.67-0.46,1.47-0.69,2.41-0.69c0.97,0,1.78,0.23,2.44,0.69c0.66,0.46,1.15,1.04,1.47,1.75
			c0.32,0.71,0.48,1.43,0.48,2.18c0,0.73-0.17,1.45-0.5,2.16c-0.34,0.71-0.84,1.3-1.51,1.76c-0.67,0.46-1.47,0.69-2.41,0.69
			C123.97,129.71,123.14,129.49,122.49,129.04z M126.44,128.27c0.34-0.34,0.59-0.78,0.74-1.31c0.15-0.53,0.23-1.08,0.23-1.65
			c0-1.19-0.21-2.14-0.63-2.85s-1.04-1.06-1.87-1.06c-0.55,0-1.01,0.18-1.36,0.53s-0.6,0.8-0.76,1.34s-0.23,1.1-0.23,1.68
			c0,0.59,0.08,1.18,0.25,1.76c0.17,0.59,0.44,1.08,0.83,1.48c0.38,0.4,0.87,0.6,1.46,0.6C125.65,128.79,126.1,128.62,126.44,128.27
			z"/>
		<path fill="#FFFFFF" d="M133.04,129.12c-0.64-0.39-1.13-0.93-1.47-1.61c-0.34-0.68-0.51-1.44-0.51-2.29c0-0.8,0.17-1.56,0.5-2.29
			s0.83-1.32,1.49-1.77c0.66-0.45,1.46-0.68,2.39-0.68c0.36,0,0.77,0.05,1.23,0.16c0.46,0.11,0.85,0.26,1.17,0.45h0.01l-0.05-0.53
			h0.97v2.94h-0.82c-0.11-0.68-0.37-1.2-0.79-1.56s-0.94-0.55-1.55-0.55c-0.55,0-1.02,0.17-1.41,0.5s-0.68,0.77-0.87,1.32
			c-0.19,0.55-0.29,1.13-0.29,1.76c0,1.12,0.23,2.02,0.69,2.71c0.46,0.69,1.11,1.03,1.94,1.03c0.27,0,0.58-0.03,0.93-0.09
			s0.63-0.14,0.85-0.25v-1.17c0-0.47,0.02-0.85,0.05-1.13c-0.22,0.02-0.42,0.03-0.62,0.03l-0.33,0.01v-0.97h3.35v0.83
			c-0.21,0.01-0.37,0.04-0.49,0.09c-0.12,0.05-0.21,0.15-0.26,0.31c-0.06,0.16-0.09,0.39-0.09,0.7v2.02h-0.3
			c-0.19,0-0.38,0.02-0.57,0.06c-0.19,0.04-0.43,0.11-0.72,0.2c-0.44,0.13-0.8,0.22-1.1,0.28s-0.63,0.09-1.01,0.09
			C134.45,129.71,133.68,129.51,133.04,129.12z"/>
	</g>
	<g transform="translate(-72.584 -9.3806)">
		<path fill="#FFFFFF" d="M205.77,44.89c-0.12-1-0.02-4.06-0.54-5.91c-0.48-1.66-1.66-4.7-2.72-6.57c0.1-0.52,4.8-6.7,4.87-12.62
			c0.08-5.93-7.42-9.96-16.28-9.79l0,0c-8.86,0.15-12.41,2.77-17.3,4.43c-5.76,1.95-10.23,3.83-8.98,4.18
			c1.95,0.56,16.86-4.64,26.28-4.62c9.3,0.02,9.75,3.37,9.21,5.82c-0.5,2.27-2.12,3.04-6.13,4.85c-1-0.4-2.37-4.74-4.57-4.68
			c-2.18,0.06-3.14,1.83-3.14,1.83c-1.1,1.1-3.49-2.47-4.12-0.17c-0.48,1.85,1.43,0.87,1.43,1.58c0.04,1.37-5.16-0.17-4.85,1.93
			c0.33,2.25,4.3-0.46,4.55,0.37c0.25,0.83-4.35,1.54-3.47,2.93c1.1,1.71,4.95-2.27,5.61-1.6c0.71,0.67-2.83,1.48-1.14,2.79
			c1.73,1.33,2.52-2.5,3.62-2.52s1.04,1.04-0.87,2.79c-1.39,1.1-2.85,2.45-4.06,4.12c-1.31,1.79-4.1,6.32-8.03,9.63
			c-1.23,1.04-3.12,2.04-5.24,3.02c-0.71-1.31-2.33-3.58-4.91-2.89c-2.18,0.58-3.26,4.06-3.74,6.26c-2.95,1.04-5.74,2.02-7.49,2.81
			c-4.99,2.25-4.33,2.99-6.05,5.12c-1.48,1.81-3.1,1.75-3.1,3.22c0,1.48,0.27,2.14,0.27,2.14s-2.7,6.61,0.12,8.19
			c6.99,3.89,13.7-4.35,14.51-4.85c0.83-0.5,1.5-0.12,3.54-2.56c0.21-0.25,1.35-0.6,1.81-0.27c0.44,0.31,1.6,3.78,1.29,4.72
			c-0.44,1.33-4.7,2.66-5.37,2.66s-0.48-3.18-2.04-2.25c-1.6,0.96,0.64,1.91,0.29,3.1c-0.46,1.56-5.24-0.96-5.28,0.89
			c-0.04,2.37,3.7,0.71,3.99,1.75c0.29,1.04-5.43,5.74-2.74,7.13c1.6,0.83,2.95-6.13,4.47-5.18c0.94,0.58-1.62,3.64,0.52,4.1
			c2.29,0.48,0.85-2.52,1.71-3.81s7.99-4.99,8.36-6.18c0.64-2-2.04-6.61-1.23-7.76c0.33-0.46,15.87-5.61,20.84-9.96
			c3.33-2.91,8.46-10.81,11.15-16.39c0.15,1.98,0.06,4.24,0,4.82c-0.1,0.96-0.21,2.12-1.37,2.54c-1.16,0.42-1.95-1.16-2.43,0.31
			c-0.48,1.46,1.21,0.85,1.04,1.95c-0.17,1.1-3.72,1.48-2.7,3.1c1.02,1.62,3.56-2.66,4.22-1.19s-3.7,5.09-1.75,5.99
			c1.95,0.89,2.62-5.47,4.14-4.89c1.52,0.56-0.44,6.7,1.75,6.7s-0.31-7.67,0.81-7.8s3.35,4.99,4.8,2.89
			C210.79,49.07,206.25,48.74,205.77,44.89z M158.74,65.94c-0.94,0.96-2.31,1.14-3.04,0.42c-0.73-0.73-0.58-2.1,0.35-3.06
			c0.94-0.96,2.31-1.14,3.04-0.42C159.82,63.61,159.67,64.98,158.74,65.94z"/>
		
			<ellipse transform="matrix(0.6795 -0.7337 0.7337 0.6795 2.7799 136.1157)" fill="#FFFFFF" cx="157.18" cy="64.88" rx="1.39" ry="1.14"/>
	</g>
</g>
</svg>
